<svg width="12" height="12" viewBox="0 0 12 12" fill="none" xmlns="http://www.w3.org/2000/svg">
<path d="M9.62398 3.46326V11.1975H8.79202V4.63511H6.41599V11.1975H5.58401V5.80698H3.20798V11.1975H2.376V6.97883H0V11.9006H12V3.46326H9.62398ZM1.67292 11.1975H0.703125V7.68196H1.67292V11.1975ZM4.88088 11.1975H3.91111V6.51008H4.88088V11.1975ZM8.08889 11.1975H7.11912V5.33823H8.08889V11.1975ZM11.2969 11.1975H10.3271V4.16638H11.2969V11.1975Z" fill="#5BD1DA"/>
<path d="M10.3574 0.0993652L9.98736 0.697209L10.7404 1.16331L0.0209351 5.05004L0.26063 5.71108L10.9611 1.83119L10.6383 2.65354L11.2928 2.91044L11.9977 1.11472L10.3574 0.0993652Z" fill="#5BD1DA"/>
</svg>
