<svg width="20" height="28" viewBox="0 0 20 28" fill="none" xmlns="http://www.w3.org/2000/svg">
<path d="M18.5986 15.6951H10.0916C10.9477 15.0359 11.8347 14.429 12.5985 13.8437C12.7879 13.699 12.9723 13.5502 13.1542 13.4002H18.5986C19.3718 13.4002 19.9984 12.7736 19.9984 12.0005C19.9984 11.2273 19.3719 10.6008 18.5986 10.6008H15.7421C16.1315 10.0044 16.4638 9.36463 16.7083 8.65868C17.3378 6.83851 17.0239 4.74262 15.971 3.14975C13.3156 -0.867811 7.86012 -0.570804 4.0612 1.42492C2.46272 2.2648 3.87765 4.68117 5.47422 3.84241C7.35987 2.85181 9.45338 2.40462 11.5155 3.08261C12.9262 3.54639 14.0979 4.82699 14.2201 6.33245C14.358 8.03896 13.3245 9.47015 12.1322 10.6016H1.40175C0.628674 10.6016 0.00195312 11.2282 0.00195312 12.0013C0.00195312 12.7744 0.628608 13.401 1.40175 13.401H8.5356C7.88417 13.8822 7.24423 14.3776 6.64513 14.9273C6.38288 15.1687 6.13682 15.4261 5.90542 15.6959H1.40175C0.628674 15.6959 0.00195312 16.3224 0.00195312 17.0957C0.00195312 17.8686 0.628608 18.4955 1.40175 18.4955H4.27251C3.36286 21.022 3.64936 23.8902 5.69643 26.0019C8.52794 28.9233 13.385 28.207 16.6724 26.6053C18.2955 25.8145 16.8755 23.4008 15.2593 24.1878C12.7144 25.4282 8.05015 26.0933 6.8419 22.6865C6.2611 21.0485 6.56597 19.6812 7.31698 18.4959H18.5985C19.3718 18.4959 19.9983 17.869 19.9983 17.0961C19.9984 16.3228 19.3719 15.6951 18.5986 15.6951Z" fill="#18191F"/>
</svg>
