<svg width="12" height="12" viewBox="0 0 12 12" fill="none" xmlns="http://www.w3.org/2000/svg">
<path d="M5.98008 10.9834H1.49501C1.21992 10.9834 0.99668 10.7601 0.99668 10.485V1.51493C0.99668 1.23984 1.21995 1.0166 1.49501 1.0166H5.98008C6.25566 1.0166 6.47841 0.793851 6.47841 0.518272C6.47841 0.242694 6.25566 0.0198975 5.98008 0.0198975H1.49501C0.670758 0.0198975 0 0.690679 0 1.51493V10.485C0 11.3093 0.670758 11.98 1.49501 11.98H5.98008C6.25566 11.98 6.47841 11.7573 6.47841 11.4817C6.47841 11.2061 6.25566 10.9834 5.98008 10.9834Z" fill="black" fill-opacity="0.54"/>
<path d="M11.8515 5.64523L8.82157 2.65519C8.62622 2.46183 8.31028 2.46434 8.11692 2.66018C7.92356 2.85602 7.92555 3.17147 8.12191 3.36483L10.2872 5.50169H4.48502C4.20944 5.50169 3.98669 5.72444 3.98669 6.00002C3.98669 6.2756 4.20944 6.49837 4.48502 6.49837H10.2872L8.12191 8.63524C7.92558 8.8286 7.92408 9.14405 8.11692 9.33989C8.21458 9.43856 8.34316 9.48839 8.47174 9.48839C8.59833 9.48839 8.72489 9.44055 8.82157 9.34486L11.8515 6.35482C11.9462 6.26114 12 6.13355 12 6C12 5.8665 11.9467 5.73942 11.8515 5.64523Z" fill="#18191F" fill-opacity="0.54"/>
</svg>
